<svg width="1089" height="131" viewBox="0 0 1089 131" fill="none" xmlns="http://www.w3.org/2000/svg">
<path d="M111.849 123.118H79.7891C77.9812 123.118 76.5349 121.658 76.5952 119.833L77.3786 84.3697C77.4389 82.5448 75.9323 81.0849 74.1244 81.0849L43.1496 81.5107C41.402 81.5107 40.016 82.9706 40.016 84.7346L39.7147 120.015C39.7147 121.779 38.2684 123.239 36.5208 123.239H3.19572C1.38785 123.239 -0.0584452 121.719 0.00181714 119.894L4.03939 3.1631C4.09965 1.39906 5.54595 0 7.29356 0.0608289L35.7976 0.364973C37.5452 0.364973 38.9313 1.82487 38.9313 3.5889V49.8797C38.9313 51.6437 40.3776 53.1036 42.1252 53.1036L74.3655 53.2861C76.1734 53.2861 77.6197 51.8262 77.5594 50.0013L76.5349 3.28476C76.4747 1.45989 77.921 0 79.7288 0H110.884C112.632 0 114.078 1.39906 114.078 3.22393L115.103 119.894C115.103 121.658 113.657 123.118 111.849 123.118Z" fill="#8CE0DC"/>
<path d="M729.656 126.949H713.868C711.999 126.949 710.553 125.368 710.613 123.482L715.073 37.9568C715.193 36.1927 716.579 34.8545 718.327 34.8545H729.656C731.464 34.8545 732.91 36.3144 732.91 38.1393V123.665C732.85 125.49 731.404 126.949 729.656 126.949Z" fill="#8CE0DC"/>
<path d="M212.908 43.1883H195.07C194.407 43.1883 193.865 43.7966 193.925 44.4657C193.986 45.3781 193.021 46.0473 192.178 45.6215C187.116 42.7625 181.391 41.1201 175.304 41.1201C174.641 41.1201 173.918 41.1201 173.255 41.1809C172.291 41.1201 171.206 41.1201 170.122 41.1201C158.491 41.1201 148.608 45.2565 140.473 53.59C132.397 61.9236 128.36 71.8995 128.36 83.5787C128.36 95.2578 132.397 105.295 140.412 113.689C148.427 122.083 158.129 126.341 169.459 126.341C170.785 126.341 171.93 126.341 173.074 126.281C173.798 126.341 174.581 126.341 175.304 126.341C181.15 126.341 186.634 124.881 191.575 122.205C192.358 121.779 193.262 122.327 193.323 123.239V124.699C193.323 125.368 193.865 125.855 194.528 125.855L215.8 125.429C217.608 125.368 218.994 123.908 218.934 122.083L216.102 46.3514C216.042 44.5874 214.655 43.1883 212.908 43.1883ZM170.785 98.1168C159.395 100.915 148.729 97.326 146.981 90.0874C145.233 82.8487 153.067 74.6977 164.517 71.8995C175.907 69.1014 186.573 72.6903 188.321 79.9289C190.068 87.1676 182.234 95.3186 170.785 98.1168Z" fill="#8CE0DC"/>
<path d="M243.34 127.619H234.723C233.096 127.619 231.71 126.281 231.71 124.577V120.259C231.71 73.4812 266.963 35.4023 310.231 35.4023H314.51C316.137 35.4023 317.523 36.7406 317.523 38.4438V47.1423C317.523 48.7847 316.197 50.1838 314.51 50.1838H310.231C274.978 50.1838 246.293 81.6323 246.293 120.319V124.638C246.353 126.22 245.028 127.619 243.34 127.619Z" fill="#FFCD7D"/>
<path d="M261.72 127.011H255.393C253.766 127.011 252.38 125.673 252.38 123.97V120.807C252.38 104.2 258.285 88.6282 269.012 76.8274C279.859 64.905 294.383 58.3354 309.93 58.3354H313.064C314.691 58.3354 316.077 59.6737 316.077 61.3769V67.7639C316.077 69.4063 314.751 70.8054 313.064 70.8054H309.93C297.878 70.8054 286.548 75.915 278.051 85.2826C269.434 94.7111 264.673 107.364 264.673 120.807V123.97C264.734 125.673 263.408 127.011 261.72 127.011Z" fill="#FFCD7D"/>
<path d="M277.69 126.828H273.11C271.483 126.828 270.097 125.49 270.097 123.787V121.475C270.097 108.945 273.893 98.1171 281.065 90.2093C288.417 82.1799 298.48 77.9219 310.292 77.9219H312.582C314.209 77.9219 315.595 79.2601 315.595 80.9633V85.5863C315.595 87.2287 314.269 88.6278 312.582 88.6278H310.292C292.273 88.6278 280.703 101.523 280.703 121.536V123.848C280.643 125.49 279.317 126.828 277.69 126.828Z" fill="#FFCD7D"/>
<path d="M583.159 48.3585C574.24 39.1125 563.393 34.4287 550.677 34.4287C537.841 34.4287 526.934 39.0517 518.015 48.3585C509.096 57.6045 504.637 68.7362 504.637 81.7536C504.637 94.7101 509.096 105.842 517.955 115.027C526.813 124.273 537.721 128.835 550.677 128.835C563.634 128.835 574.541 124.212 583.34 115.027C592.138 105.781 596.537 94.7101 596.537 81.7536C596.537 68.797 592.078 57.6653 583.159 48.3585ZM549.532 98.1774C538.143 100.976 527.476 97.3866 525.729 90.148C523.981 82.9093 531.815 74.7583 543.265 71.9601C554.655 69.162 565.321 72.7509 567.069 79.9895C568.816 87.2282 560.922 95.3792 549.532 98.1774Z" fill="#8CE0DC"/>
<path d="M723.871 23.9899C731.957 22.0095 737.513 16.2489 736.281 11.1232C735.049 5.99759 727.495 3.44787 719.409 5.42829C711.323 7.40871 705.767 13.1693 706.999 18.295C708.231 23.4206 715.785 25.9704 723.871 23.9899Z" fill="#8CE0DC"/>
<path d="M677.168 126.95H699.586C701.393 126.95 702.84 125.429 702.78 123.604L701.273 79.6858C701.273 67.2159 698.862 57.9091 696.211 51.887C693.559 45.865 685.786 41.1203 680.422 37.7139C675.059 34.3075 669.093 32.5435 662.524 32.5435C652.521 32.5435 643.542 36.0715 635.708 43.1885C633.659 45.0742 630.405 43.5535 630.405 40.7554V38.1397C630.405 36.3757 628.958 34.9158 627.211 34.9158H613.712C612.025 34.9158 610.578 36.3148 610.518 38.0181L608.047 123.604C607.987 125.429 609.433 126.95 611.241 126.95H632.694C634.382 126.95 635.768 125.612 635.888 123.969C639.263 76.9485 648.905 65.9993 665.176 66.3035C670.238 66.4251 674.697 68.4933 676.204 73.5421C676.565 76.2794 676.505 76.1578 676.626 79.1992C676.565 80.4766 676.806 83.2747 676.806 84.6738L673.914 123.422C673.793 125.308 675.24 126.95 677.168 126.95Z" fill="#8CE0DC"/>
<path d="M468.54 126.341H491.561C493.188 126.341 494.574 125.003 494.513 123.3L494.031 86.6809C494.031 66.4857 489.331 52.7384 482.099 45.4389C474.868 38.1395 466.13 34.4897 455.825 34.4897C448.292 34.4897 441.242 36.4971 434.492 40.451C429.189 43.6141 424.549 47.8721 420.632 53.2859C419.306 55.1107 416.594 54.8674 415.57 52.9209C412.918 47.8113 409.242 43.6749 404.542 40.5726C398.395 36.4971 391.586 34.4897 384.113 34.4897C373.447 34.4897 365.432 38.0786 358.08 45.3173C356.031 47.3246 352.716 45.5606 353.078 42.7625L353.379 40.6943C353.62 38.8694 352.234 37.2879 350.426 37.2879H334.577C333.011 37.2879 331.745 38.5045 331.625 40.086L326.201 123.178C326.08 124.881 327.466 126.341 329.154 126.341H353.138C354.765 126.341 356.091 125.064 356.091 123.422L356.392 108.64C356.392 108.579 356.392 108.518 356.392 108.458C358.14 88.1408 363.985 63.9918 390.199 70.3788C394.237 71.352 396.949 74.3935 397.371 84.7344C397.371 86.3768 397.371 88.445 397.371 91.3039C397.371 91.3647 397.371 91.4256 397.371 91.4864L395.563 123.239C395.442 124.942 396.828 126.402 398.516 126.402H422.138C423.766 126.402 425.091 125.064 425.091 123.422V103.713C425.091 103.652 425.091 103.531 425.091 103.47C426.779 84.0045 430.937 65.4516 455.042 70.5004C467.817 73.1769 467.817 94.2845 465.708 111.56L465.527 122.996C465.347 124.699 466.733 126.341 468.54 126.341Z" fill="#8CE0DC"/>
<path d="M755.87 8.94189H779.312C780.939 8.94189 782.265 10.2193 782.325 11.8617L784.374 59.9165H784.796C787.207 55.4152 789.798 51.0355 792.449 46.7166L812.276 10.5843C812.818 9.61101 813.842 9.00272 814.927 9.00272H848.252C850.783 9.00272 852.169 11.9225 850.663 13.9299L811.191 65.2086C810.347 66.3035 810.347 67.8242 811.191 68.9192L852.29 124.091C853.796 126.098 852.35 128.957 849.879 128.957H818.724C817.579 128.957 816.494 128.288 816.012 127.193L796.065 84.7955C795.101 82.7273 792.329 82.4232 790.943 84.248L785.158 91.73C784.676 92.3383 784.495 93.0682 784.495 93.7982L786.423 125.794C786.544 127.558 785.158 129.018 783.41 129.018H755.991C754.303 129.018 752.978 127.68 752.978 125.977V11.9833C752.857 10.2801 754.183 8.94189 755.87 8.94189Z" fill="#8CE0DC"/>
<path d="M865.246 125.612L871.272 39.3565C871.393 37.775 872.719 36.4976 874.285 36.4976H890.737C892.424 36.4976 893.75 37.8966 893.75 39.5998L892.967 125.855C892.967 127.558 891.581 128.897 889.954 128.897H868.259C866.512 128.897 865.126 127.376 865.246 125.612Z" fill="#8CE0DC"/>
<path d="M1024.04 100.793C1024.46 98.6033 1026.93 97.5692 1028.74 98.8466C1034.4 102.8 1042.78 108.579 1048.99 108.579C1055.68 108.579 1058.39 107.059 1058.39 103.835C1058.39 100.611 1056.4 99.2116 1047.12 96.231C1028.07 90.1481 1021.57 79.6855 1021.69 69.4663C1021.69 52.0084 1036.45 39.356 1059.23 39.356C1068.33 39.356 1076.65 41.12 1082.31 43.1882C1083.82 43.7356 1084.66 45.4388 1084.18 47.0204L1081.29 56.0839C1080.8 57.6046 1079.18 58.5171 1077.61 58.0913C1073.21 56.8138 1066.76 56.4489 1061.1 56.4489C1055.68 56.4489 1049.17 62.0451 1052.18 66.3032C1053.87 68.6755 1054.89 70.987 1065.26 74.3326C1082.37 79.9897 1088.88 88.9315 1089 101.584C1089 118.251 1076.1 130.843 1049.35 130.843C1038.5 130.843 1028.68 128.714 1021.87 125.672C1020.6 125.125 1019.88 123.726 1020.12 122.327L1024.04 100.793Z" fill="#8CE0DC"/>
<path d="M884.709 23.9782C892.794 21.9978 898.35 16.2372 897.118 11.1115C895.886 5.98587 888.333 3.43615 880.247 5.41657C872.161 7.39699 866.605 13.1576 867.837 18.2833C869.069 23.4089 876.623 25.9586 884.709 23.9782Z" fill="#8CE0DC"/>
<path d="M1000.54 101.219L995.895 5.41344C995.835 3.77106 994.509 2.49365 992.882 2.49365H976.069C974.381 2.49365 973.055 3.83189 973.055 5.5351L972.694 42.9449C972.634 46.9596 970.645 45.6822 969.862 45.0739C969.801 45.013 969.681 44.8914 969.62 44.8306C965.282 41.1808 958.713 39.356 950.939 39.356C930.51 39.356 912.07 56.2056 912.191 85.7076C912.191 113.202 928.883 130.903 949.131 130.903C957.628 130.903 966.547 127.984 972.573 120.988C972.573 120.988 975.647 117.825 975.526 121.779L975.345 125.733C975.285 127.436 976.671 128.896 978.359 128.896H997.703C999.39 128.896 1000.78 127.497 1000.72 125.733C1000.47 119.589 1000.54 110.343 1000.54 101.219ZM950.879 101.888C939.73 105.416 928.883 102.557 926.714 95.4402C924.544 88.384 931.776 79.7463 942.924 76.2183C954.073 72.6902 964.92 75.5491 967.089 82.6661C969.259 89.7831 962.027 98.36 950.879 101.888Z" fill="#8CE0DC"/>
</svg>
